<mxfile host="app.diagrams.net" agent="Mozilla/5.0 (Windows NT 10.0; Win64; x64) AppleWebKit/537.36 (KHTML, like Gecko) Chrome/121.0.0.0 Safari/537.36" version="28.0.9">
  <diagram name="第 1 页" id="zulWMOixEyAOa8_Fvbwx">
    <mxGraphModel dx="1042" dy="535" grid="1" gridSize="10" guides="1" tooltips="1" connect="1" arrows="1" fold="1" page="1" pageScale="1" pageWidth="827" pageHeight="1169" math="0" shadow="0">
      <root>
        <mxCell id="0" />
        <mxCell id="1" parent="0" />
        <mxCell id="k7N429QFZnT1FYMLHbrg-1" value=":Object" style="shape=umlLifeline;perimeter=lifelinePerimeter;whiteSpace=wrap;html=1;container=1;dropTarget=0;collapsible=0;recursiveResize=0;outlineConnect=0;portConstraint=eastwest;newEdgeStyle={&quot;curved&quot;:0,&quot;rounded&quot;:0};" vertex="1" parent="1">
          <mxGeometry x="160" y="320" width="100" height="300" as="geometry" />
        </mxCell>
        <mxCell id="k7N429QFZnT1FYMLHbrg-2" value=":Object" style="shape=umlLifeline;perimeter=lifelinePerimeter;whiteSpace=wrap;html=1;container=1;dropTarget=0;collapsible=0;recursiveResize=0;outlineConnect=0;portConstraint=eastwest;newEdgeStyle={&quot;curved&quot;:0,&quot;rounded&quot;:0};" vertex="1" parent="1">
          <mxGeometry x="389" y="320" width="100" height="400" as="geometry" />
        </mxCell>
        <mxCell id="k7N429QFZnT1FYMLHbrg-6" value="" style="html=1;points=[[0,0,0,0,5],[0,1,0,0,-5],[1,0,0,0,5],[1,1,0,0,-5]];perimeter=orthogonalPerimeter;outlineConnect=0;targetShapes=umlLifeline;portConstraint=eastwest;newEdgeStyle={&quot;curved&quot;:0,&quot;rounded&quot;:0};" vertex="1" parent="k7N429QFZnT1FYMLHbrg-2">
          <mxGeometry x="45" y="265" width="10" height="80" as="geometry" />
        </mxCell>
        <mxCell id="k7N429QFZnT1FYMLHbrg-10" value="" style="html=1;points=[[0,0,0,0,5],[0,1,0,0,-5],[1,0,0,0,5],[1,1,0,0,-5]];perimeter=orthogonalPerimeter;outlineConnect=0;targetShapes=umlLifeline;portConstraint=eastwest;newEdgeStyle={&quot;curved&quot;:0,&quot;rounded&quot;:0};" vertex="1" parent="k7N429QFZnT1FYMLHbrg-2">
          <mxGeometry x="50" y="295" width="10" height="40" as="geometry" />
        </mxCell>
        <mxCell id="k7N429QFZnT1FYMLHbrg-11" value="self call" style="html=1;align=left;spacingLeft=2;endArrow=block;rounded=0;edgeStyle=orthogonalEdgeStyle;curved=0;rounded=0;" edge="1" target="k7N429QFZnT1FYMLHbrg-10" parent="k7N429QFZnT1FYMLHbrg-2">
          <mxGeometry relative="1" as="geometry">
            <mxPoint x="55" y="275" as="sourcePoint" />
            <Array as="points">
              <mxPoint x="85" y="305" />
            </Array>
          </mxGeometry>
        </mxCell>
        <mxCell id="k7N429QFZnT1FYMLHbrg-13" value="self call" style="html=1;align=left;spacingLeft=2;endArrow=block;rounded=0;edgeStyle=orthogonalEdgeStyle;curved=0;rounded=0;" edge="1" parent="k7N429QFZnT1FYMLHbrg-2">
          <mxGeometry relative="1" as="geometry">
            <mxPoint x="55" y="143" as="sourcePoint" />
            <Array as="points">
              <mxPoint x="85" y="173" />
            </Array>
            <mxPoint x="60" y="173" as="targetPoint" />
          </mxGeometry>
        </mxCell>
        <mxCell id="k7N429QFZnT1FYMLHbrg-15" value="" style="html=1;points=[[0,0,0,0,5],[0,1,0,0,-5],[1,0,0,0,5],[1,1,0,0,-5]];perimeter=orthogonalPerimeter;outlineConnect=0;targetShapes=umlLifeline;portConstraint=eastwest;newEdgeStyle={&quot;curved&quot;:0,&quot;rounded&quot;:0};" vertex="1" parent="k7N429QFZnT1FYMLHbrg-2">
          <mxGeometry x="45" y="130" width="10" height="80" as="geometry" />
        </mxCell>
        <mxCell id="k7N429QFZnT1FYMLHbrg-14" value="" style="html=1;points=[[0,0,0,0,5],[0,1,0,0,-5],[1,0,0,0,5],[1,1,0,0,-5]];perimeter=orthogonalPerimeter;outlineConnect=0;targetShapes=umlLifeline;portConstraint=eastwest;newEdgeStyle={&quot;curved&quot;:0,&quot;rounded&quot;:0};" vertex="1" parent="k7N429QFZnT1FYMLHbrg-2">
          <mxGeometry x="50" y="160" width="10" height="35" as="geometry" />
        </mxCell>
        <mxCell id="k7N429QFZnT1FYMLHbrg-4" value="ha" style="html=1;verticalAlign=bottom;endArrow=block;curved=0;rounded=0;entryX=0;entryY=0;entryDx=0;entryDy=5;" edge="1" parent="1">
          <mxGeometry relative="1" as="geometry">
            <mxPoint x="211" y="455" as="sourcePoint" />
            <mxPoint x="434" y="455" as="targetPoint" />
          </mxGeometry>
        </mxCell>
        <mxCell id="k7N429QFZnT1FYMLHbrg-5" value="return" style="html=1;verticalAlign=bottom;endArrow=open;dashed=1;endSize=8;curved=0;rounded=0;exitX=0;exitY=1;exitDx=0;exitDy=-5;" edge="1" parent="1">
          <mxGeometry relative="1" as="geometry">
            <mxPoint x="211" y="525" as="targetPoint" />
            <mxPoint x="434" y="525" as="sourcePoint" />
          </mxGeometry>
        </mxCell>
        <mxCell id="k7N429QFZnT1FYMLHbrg-7" value="dispatch" style="html=1;verticalAlign=bottom;startArrow=oval;endArrow=block;startSize=8;curved=0;rounded=0;entryX=0;entryY=0;entryDx=0;entryDy=5;" edge="1" target="k7N429QFZnT1FYMLHbrg-6" parent="1">
          <mxGeometry relative="1" as="geometry">
            <mxPoint x="210" y="590" as="sourcePoint" />
          </mxGeometry>
        </mxCell>
      </root>
    </mxGraphModel>
  </diagram>
</mxfile>
